<svg width="57" height="57" viewBox="0 0 57 57" fill="none" xmlns="http://www.w3.org/2000/svg">
<path d="M0 0V56.248H56.2191V0H0ZM52.4734 3.74756V11.247H3.74563V3.74756H52.4734ZM3.74563 52.4961V15.0075H52.4734V52.4961H3.74563Z" fill="#1EC163"/>
<path d="M48.7234 9.35587C49.7484 9.35587 50.5832 8.52067 50.5832 7.49507C50.5832 6.46947 49.7484 5.63428 48.7234 5.63428C47.6983 5.63428 46.8635 6.46947 46.8635 7.49507C46.8635 8.52067 47.694 9.35587 48.7234 9.35587Z" fill="#1EC163"/>
<path d="M43.092 9.35587C44.1171 9.35587 44.9519 8.52067 44.9519 7.49507C44.9519 6.46947 44.1171 5.63428 43.092 5.63428C42.0669 5.63428 41.2322 6.46947 41.2322 7.49507C41.2322 8.52067 42.0669 9.35587 43.092 9.35587Z" fill="#1EC163"/>
<path d="M37.4563 9.35587C38.4813 9.35587 39.3161 8.52067 39.3161 7.49507C39.3161 6.46947 38.4813 5.63428 37.4563 5.63428C36.4312 5.63428 35.5964 6.46947 35.5964 7.49507C35.5964 8.52067 36.4312 9.35587 37.4563 9.35587Z" fill="#1EC163"/>
<path d="M9.37695 30.0022V33.7411V33.9531L24.3768 41.2405V37.48L13.1269 31.8716L24.3768 26.2676V22.5071L9.37695 29.7901V30.0022Z" fill="#1EC163"/>
<path d="M31.8423 26.2676L43.0922 31.8716L31.8423 37.48V41.2405L46.8421 33.9531V33.7411V30.0022V29.7901L31.8423 22.5071V26.2676Z" fill="#1EC163"/>
</svg>
